<?xml version="1.0" encoding="utf-8"?>
<!-- Generator: Adobe Illustrator 19.2.0, SVG Export Plug-In . SVG Version: 6.00 Build 0)  -->
<svg version="1.1" id="Layer_1" xmlns="http://www.w3.org/2000/svg" xmlns:xlink="http://www.w3.org/1999/xlink" x="0px" y="0px"
	 viewBox="0 0 187 187" style="enable-background:new 0 0 187 187;" xml:space="preserve">
<style type="text/css">
	.st0{fill:#EC1C24;}
	.st1{fill:none;}
	.st2{fill:#FFFFFF;}
</style>
<rect id="XMLID_96_" x="0.9" y="0.9" class="st0" width="185.1" height="185.1"/>
<g>
	<polygon class="st1" points="67.3,148.9 78.6,148.9 73,132.6 	"/>
	<polygon class="st2" points="59.6,72.7 40.9,26.7 27.1,26.7 27.1,111.8 41.1,111.8 41.1,62.2 54.9,94.5 64.4,94.5 78.1,62.2 
		78.1,111.8 92.1,111.8 92.1,26.7 78.3,26.7 	"/>
	<polygon class="st2" points="124.5,111.8 138.4,111.8 138.4,76.9 160,26.7 144.7,26.7 131.5,61 118.1,26.7 102.9,26.7 124.5,76.9 	
		"/>
	<path class="st2" d="M40.1,145.9h7.8v2.1c0,2.4-0.6,4.3-1.9,5.7c-1.5,1.7-3.5,2.6-5.9,2.6c-1.1,0-2.1-0.2-3-0.6
		c-0.9-0.4-1.7-0.9-2.4-1.6c-0.5-0.6-0.9-1.1-1.1-1.7c-0.3-0.5-0.5-1.2-0.7-2.1c-0.2-0.9-0.3-1.9-0.3-3c-0.1-1.1-0.1-2.6-0.1-4.6
		c0-3.7,0.1-6.2,0.4-7.7c0.3-1.5,0.9-2.7,1.8-3.7c0.7-0.7,1.5-1.3,2.4-1.7c1-0.4,2-0.6,3-0.6c1.4,0,2.6,0.3,3.6,0.8
		c1,0.5,1.9,1.2,2.6,2.2c0.7,1,1.2,2.1,1.5,3.4h5.6c-0.4-2.1-1.1-4.1-2.2-5.8c-1.1-1.7-2.6-3.1-4.5-4.1c-1.9-1-4.1-1.5-6.6-1.5
		c-3.8,0-7,1.3-9.6,3.9c-0.9,0.9-1.6,1.8-2,2.8c-0.5,0.9-0.8,2-1,3.1c-0.2,1.1-0.3,2.3-0.4,3.6c-0.1,1.3-0.1,3.1-0.1,5.3
		c0,2.9,0.1,5.1,0.2,6.7c0.1,1.5,0.4,3,0.9,4.3c0.5,1.3,1.3,2.6,2.5,3.7c0.8,0.8,1.7,1.5,2.8,2.1c1,0.6,2.1,1.1,3.3,1.3
		c1.1,0.3,2.3,0.4,3.6,0.4c4.1,0,7.4-1.4,10.1-4.2c1.2-1.3,2.1-2.7,2.5-4.3c0.5-1.6,0.7-3.6,0.7-6v-5.6H40.1V145.9z"/>
	<path class="st2" d="M70.7,124.4L57.2,161h5.9l2.5-7.4h14.4l2.5,7.4h5.9l-13.4-36.6H70.7z M67.3,148.9l5.7-16.2l5.5,16.2H67.3z"/>
	<polygon class="st2" points="110,147.1 99.3,124.4 93.7,124.4 93.7,161 99.3,161 99.3,136.5 107.9,154.3 112,154.3 120.4,136.5 
		120.4,161 126,161 126,124.4 120.4,124.4 	"/>
	<polygon class="st2" points="135.5,161 158.9,161 158.9,156 141.1,156 141.1,145 156.3,145 156.3,140 141.1,140 141.1,129.4 
		158.9,129.4 158.9,124.4 135.5,124.4 	"/>
</g>
</svg>
