<svg xmlns="http://www.w3.org/2000/svg" version="1.1" x="0" y="0" viewBox="0 0 187 187" xml:space="preserve"><style type="text/css">
	.st0{fill:#FEDD00;}
	.st1{fill:#9B26B6;}
</style><rect x="1" y="1" class="st0" width="185" height="185"/><path class="st1" d="M39.2 160.2c-5 0-8.6-1.2-11.7-4.4l3.3-3.3c2.4 2.4 5.1 3.2 8.5 3.2 4.3 0 6.8-1.9 6.8-5.1 0-1.4-0.4-2.7-1.3-3.4 -0.8-0.8-1.7-1.1-3.6-1.4l-3.9-0.6c-2.7-0.4-4.8-1.3-6.3-2.7 -1.6-1.5-2.4-3.6-2.4-6.3 0-5.8 4.2-9.7 11.1-9.7 4.4 0 7.4 1.1 10.3 3.8l-3.2 3.2c-2-2-4.4-2.6-7.2-2.6 -3.9 0-6 2.2-6 5.2 0 1.2 0.4 2.3 1.3 3.1 0.8 0.7 2.2 1.3 3.7 1.5l3.8 0.6c3.1 0.5 4.8 1.2 6.2 2.5 1.8 1.6 2.7 4 2.7 6.8C51.1 156.6 46.1 160.2 39.2 160.2zM75.6 161.4l-3.3-3.3c-1.9 1.3-4.3 2.1-6.9 2.1 -3.5 0-6.4-1.3-8.7-3.5 -3.3-3.3-3.2-6.9-3.2-13.3s0-10 3.2-13.3c2.3-2.3 5.2-3.5 8.7-3.5 3.5 0 6.5 1.3 8.7 3.5 3.3 3.3 3.2 6.9 3.2 13.3 0 5.6 0 9.1-2.1 12l3.3 3.2L75.6 161.4zM70.3 133.1c-1.2-1.3-3-2-4.9-2 -2 0-3.8 0.8-4.9 2 -1.6 1.8-2 3.6-2 10.3 0 6.7 0.3 8.5 2 10.3 1.2 1.3 3 2 4.9 2 1.3 0 2.4-0.4 3.4-1.1l-3.5-3.5 2.8-2.8 3.2 3.2c0.8-1.7 1-3.9 1-8.2C72.3 136.7 72 134.8 70.3 133.1zM92.9 160.2c-6.7 0-11.9-4.6-11.9-11.4v-22h5v21.7c0 4.4 2.7 7.2 6.8 7.2 4.1 0 6.9-2.7 6.9-7.2v-21.7h5v22C104.8 155.6 99.7 160.2 92.9 160.2zM128.9 159.9l-2.3-6.7h-13.1l-2.3 6.7h-5.4l12.1-33.1h4l12.1 33.1H128.9zM120.2 134.3L115 149h10.2L120.2 134.3zM154 159.9l-7-14h-6.3v14h-5v-33.1h12.8c6.3 0 10.3 4 10.3 9.7 0 4.7-2.9 7.8-6.6 8.8l7.6 14.7H154zM148.2 131.3h-7.4v10.4h7.4c3.3 0 5.6-1.9 5.6-5.2S151.6 131.3 148.2 131.3z"/><path class="st1" d="M78.1 111.8V62.2L64.4 94.5h-9.5L41.1 62.2v49.6h-14V26.7h13.8l18.7 46 18.6-46h13.8v85.1H78.1zM138.4 76.9v34.9h-13.9V76.9l-21.6-50.2h15.2L131.5 61l13.2-34.3h15.2L138.4 76.9z"/></svg>
