<svg xmlns="http://www.w3.org/2000/svg" version="1.1" x="0" y="0" viewBox="0 0 192 42" xml:space="preserve"><style type="text/css">
	.st0{fill:#9B26B6;stroke:#9B26B6;stroke-width:2;stroke-miterlimit:10;}
	.st1{fill:#FFFFFF;stroke:#FFFFFF;stroke-miterlimit:10;}
	.st2{fill:none;stroke:#9B26B6;stroke-miterlimit:10;}
	.st3{fill:none;stroke:#FFFFFF;stroke-miterlimit:10;}
	.st4{fill:#9B26B6;}
	.st5{fill:#FFFFFF;}
</style><rect x="2.3" y="2" class="st0" width="187.3" height="38"/><polygon class="st1" points="39.3 7.4 24.2 7.4 24.2 33.9 45.4 33.9 45.4 13.6 39.3 13.6 "/><path class="st2" d="M39.3 7.4"/><line class="st3" x1="39.4" y1="7.3" x2="45.6" y2="13.4"/><path class="st4" d="M29.9 30.1h-2.5l-0.6 1.7h-0.9l2.4-6.8H29l2.4 6.8h-0.9L29.9 30.1zM27.6 29.3h2l-1-2.9h0L27.6 29.3zM33.3 29.1v2.7h-0.9V25H35c0.7 0 1.3 0.2 1.7 0.6s0.6 0.9 0.6 1.5c0 0.6-0.2 1.1-0.6 1.5 -0.4 0.4-1 0.6-1.7 0.6H33.3zM33.3 28.4H35c0.5 0 0.8-0.1 1-0.4 0.2-0.2 0.3-0.6 0.3-0.9s-0.1-0.7-0.3-0.9c-0.2-0.3-0.6-0.4-1-0.4h-1.7V28.4zM40 28.7h-0.6v3.1h-0.9V25h0.9v3h0.5l2.5-3h1l0 0 -2.7 3.2 2.9 3.5 0 0h-1.1L40 28.7z"/><polygon class="st5" points="155.8 24.7 152.3 28.2 148.8 24.7 137.3 24.7 137.3 31.7 167.3 31.7 167.3 24.7 "/><polygon class="st5" points="159.4 18.8 155.4 18.8 155.4 10.6 149.6 10.6 149.6 18.8 145.2 18.8 152.3 25.9 "/><path class="st5" d="M63.3 16.5h-3.2v10h3.2c1.3 0 2.4-0.4 3.2-1.2 0.8-0.8 1.2-1.8 1.2-3.1v-1.4c0-1.3-0.4-2.3-1.2-3.1C65.7 16.9 64.6 16.5 63.3 16.5zM66.3 22.2c0 1-0.3 1.7-0.8 2.3 -0.5 0.6-1.3 0.9-2.2 0.9h-1.8v-7.9h1.8c0.9 0 1.7 0.3 2.2 0.9 0.5 0.6 0.8 1.4 0.8 2.3V22.2zM72.6 18.9c-1 0-1.8 0.4-2.4 1.1 -0.6 0.7-0.9 1.6-0.9 2.7v0.2c0 1.1 0.3 2 0.9 2.7s1.4 1.1 2.4 1.1 1.8-0.4 2.4-1.1c0.6-0.7 0.9-1.6 0.9-2.7v-0.2c0-1.1-0.3-2-0.9-2.7S73.6 18.9 72.6 18.9zM74.5 22.9c0 0.8-0.2 1.4-0.5 2 -0.3 0.5-0.8 0.8-1.5 0.8 -0.7 0-1.2-0.3-1.5-0.8 -0.3-0.5-0.5-1.2-0.5-2v-0.2c0-0.8 0.2-1.4 0.5-2 0.3-0.5 0.8-0.8 1.5-0.8 0.7 0 1.1 0.3 1.5 0.8 0.3 0.5 0.5 1.2 0.5 2V22.9z"/><polygon class="st5" points="84.4 23.8 84.2 24.9 84.1 24.9 83.9 23.8 82.4 19.1 81.3 19.1 79.9 23.8 79.7 24.8 79.6 24.8 79.5 23.8 78.3 19.1 76.9 19.1 79 26.5 80.1 26.5 81.6 22 81.9 20.8 81.9 20.8 82.2 22 83.7 26.5 84.7 26.5 86.9 19.1 85.5 19.1 "/><path class="st5" d="M91.8 18.9c-0.5 0-0.9 0.1-1.3 0.3 -0.4 0.2-0.7 0.5-0.9 0.9l-0.1-1.1h-1.2v7.5h1.4V21c0.2-0.3 0.4-0.5 0.7-0.7 0.3-0.2 0.6-0.3 1.1-0.3 0.5 0 0.9 0.1 1.2 0.4 0.3 0.3 0.4 0.7 0.4 1.4v4.7h1.4v-4.7c0-1-0.2-1.7-0.7-2.2C93.2 19.2 92.6 18.9 91.8 18.9z"/><rect x="96.4" y="15.8" class="st5" width="1.4" height="10.7"/><path class="st5" d="M102.8 18.9c-1 0-1.8 0.4-2.4 1.1 -0.6 0.7-0.9 1.6-0.9 2.7v0.2c0 1.1 0.3 2 0.9 2.7s1.4 1.1 2.4 1.1c1 0 1.8-0.4 2.4-1.1 0.6-0.7 0.9-1.6 0.9-2.7v-0.2c0-1.1-0.3-2-0.9-2.7S103.9 18.9 102.8 18.9zM104.8 22.9c0 0.8-0.2 1.4-0.5 2 -0.3 0.5-0.8 0.8-1.5 0.8 -0.7 0-1.2-0.3-1.5-0.8 -0.3-0.5-0.5-1.2-0.5-2v-0.2c0-0.8 0.2-1.4 0.5-2 0.3-0.5 0.8-0.8 1.5-0.8 0.7 0 1.1 0.3 1.5 0.8 0.3 0.5 0.5 1.2 0.5 2V22.9zM113.6 25v-3.6c0-0.8-0.3-1.4-0.8-1.9 -0.5-0.4-1.2-0.6-2-0.6 -0.9 0-1.6 0.2-2.1 0.7 -0.5 0.5-0.8 0.9-0.8 1.5l0 0 1.3 0c0-0.3 0.1-0.6 0.4-0.8 0.3-0.2 0.6-0.3 1.1-0.3 0.5 0 0.9 0.1 1.1 0.4 0.3 0.3 0.4 0.6 0.4 1v0.7h-1.5c-1 0-1.8 0.2-2.3 0.6 -0.6 0.4-0.9 1-0.9 1.7 0 0.7 0.2 1.2 0.6 1.6 0.4 0.4 1 0.6 1.8 0.6 0.5 0 0.9-0.1 1.3-0.4 0.4-0.2 0.7-0.5 1-0.9 0 0.2 0 0.3 0 0.5 0 0.2 0.1 0.4 0.1 0.6h1.4c-0.1-0.2-0.1-0.5-0.2-0.7S113.6 25.3 113.6 25zM112.3 24.3c-0.1 0.3-0.4 0.6-0.8 0.9 -0.4 0.3-0.8 0.4-1.3 0.4 -0.4 0-0.7-0.1-0.9-0.3 -0.2-0.2-0.3-0.5-0.3-0.8 0-0.4 0.2-0.7 0.5-1 0.3-0.3 0.8-0.4 1.3-0.4h1.5V24.3zM120.2 19.9c-0.2-0.3-0.5-0.5-0.9-0.7 -0.3-0.2-0.7-0.2-1.2-0.2 -0.9 0-1.6 0.4-2.2 1.1 -0.5 0.7-0.8 1.7-0.8 2.9v0.1c0 1.1 0.3 1.9 0.8 2.6s1.2 1 2.1 1c0.5 0 0.9-0.1 1.2-0.3s0.7-0.5 0.9-0.8l0.2 0.9h1V15.8h-1.4V19.9zM120.2 24.5c-0.2 0.3-0.4 0.6-0.7 0.8s-0.6 0.3-1 0.3c-0.6 0-1.1-0.2-1.4-0.7 -0.3-0.5-0.5-1.1-0.5-1.8v-0.1c0-0.9 0.2-1.6 0.5-2.1 0.3-0.5 0.8-0.8 1.4-0.8 0.4 0 0.7 0.1 1 0.3 0.3 0.2 0.5 0.4 0.7 0.7V24.5z"/></svg>