<?xml version="1.0" encoding="utf-8"?>
<!-- Generator: Adobe Illustrator 19.2.0, SVG Export Plug-In . SVG Version: 6.00 Build 0)  -->
<svg version="1.1" id="Layer_1" xmlns="http://www.w3.org/2000/svg" xmlns:xlink="http://www.w3.org/1999/xlink" x="0px" y="0px"
	 viewBox="0 0 187 187" style="enable-background:new 0 0 187 187;" xml:space="preserve">
<style type="text/css">
	.st0{fill:#9B26B6;}
	.st1{fill:#FEDD00;}
</style>
<g>
	<g id="XMLID_14_">
		<rect x="0.9" y="0.9" class="st0" width="185.6" height="185.6"/>
	</g>
	<g>
		<g>
			<polygon class="st1" points="60.7,73.1 42.7,29 29.5,29 29.5,110.6 42.9,110.6 42.9,63 56.2,94 65.3,94 78.4,63 78.4,110.6 
				91.8,110.6 91.8,29 78.6,29 			"/>
		</g>
		<g>
			<polygon class="st1" points="144.4,29 131.8,61.9 118.9,29 104.3,29 125,77.1 125,110.6 138.3,110.6 138.3,77.1 159,29 			"/>
		</g>
	</g>
	<g>
		<path class="st1" d="M50.4,158.9l-2.3-6.7H34.9l-2.3,6.7h-5.4l12.2-33.3h4.1l12.2,33.3H50.4z M41.6,133.1l-5.2,14.8h10.2
			L41.6,133.1z"/>
		<path class="st1" d="M79.7,145.8h-7.6v13.1h-5v-33.3h12.6c6.5,0,10.7,4.3,10.7,10.1S86.2,145.8,79.7,145.8z M79.4,130.1h-7.3v11.1
			h7.3c3.5,0,5.9-2,5.9-5.5S82.9,130.1,79.4,130.1z"/>
		<path class="st1" d="M115.8,145.8h-7.6v13.1h-5v-33.3h12.6c6.5,0,10.7,4.3,10.7,10.1S122.3,145.8,115.8,145.8z M115.5,130.1h-7.3
			v11.1h7.3c3.5,0,5.9-2,5.9-5.5S119,130.1,115.5,130.1z"/>
		<path class="st1" d="M148,159.2c-5,0-8.6-1.2-11.8-4.4l3.4-3.3c2.4,2.4,5.1,3.2,8.5,3.2c4.3,0,6.9-1.9,6.9-5.1
			c0-1.4-0.4-2.7-1.3-3.5c-0.8-0.8-1.7-1.1-3.6-1.4l-3.9-0.6c-2.7-0.4-4.9-1.3-6.3-2.7c-1.6-1.5-2.4-3.6-2.4-6.4
			c0-5.8,4.2-9.8,11.1-9.8c4.4,0,7.5,1.1,10.3,3.8l-3.2,3.2c-2.1-2-4.4-2.6-7.2-2.6c-3.9,0-6.1,2.2-6.1,5.2c0,1.2,0.4,2.3,1.3,3.1
			c0.8,0.7,2.2,1.3,3.7,1.5l3.8,0.6c3.1,0.5,4.8,1.2,6.2,2.5c1.8,1.6,2.7,4,2.7,6.8C160,155.5,155,159.2,148,159.2z"/>
	</g>
</g>
</svg>
