<?xml version="1.0" encoding="utf-8"?>
<!-- Generator: Adobe Illustrator 19.2.0, SVG Export Plug-In . SVG Version: 6.00 Build 0)  -->
<svg version="1.1" id="Layer_1" xmlns="http://www.w3.org/2000/svg" xmlns:xlink="http://www.w3.org/1999/xlink" x="0px" y="0px"
	 viewBox="0 0 187 187" style="enable-background:new 0 0 187 187;" xml:space="preserve">
<style type="text/css">
	.st0{fill:#FFFFFF;}
</style>
<g>
	<path class="st0" d="M153.8,136.5c0-3.3-2.3-5.2-5.6-5.2h-7.4v10.4h7.4C151.6,141.7,153.8,139.8,153.8,136.5z"/>
	<path class="st0" d="M65.4,131c-2,0-3.8,0.8-4.9,2c-1.6,1.8-2,3.6-2,10.3c0,6.7,0.3,8.5,2,10.3c1.2,1.3,3,2,4.9,2
		c1.3,0,2.4-0.4,3.4-1.1l-3.5-3.5l2.8-2.8l3.2,3.2c0.8-1.7,1-3.9,1-8.2c0-6.7-0.3-8.5-2-10.3C69.2,131.8,67.3,131,65.4,131z"/>
	<polygon class="st0" points="115,149 125.2,149 120.2,134.3 	"/>
	<path class="st0" d="M1,1v185h185V1H1z M27.1,26.7h13.8l18.7,46l18.6-46h13.8v85.1h-14V62.2L64.4,94.5h-9.5L41.1,62.2v49.6h-14
		V26.7z M39.2,160.2c-5,0-8.6-1.2-11.7-4.4l3.3-3.3c2.4,2.4,5.1,3.2,8.5,3.2c4.3,0,6.8-1.9,6.8-5.1c0-1.4-0.4-2.7-1.3-3.4
		c-0.8-0.8-1.7-1.1-3.6-1.4l-3.9-0.6c-2.7-0.4-4.8-1.3-6.3-2.7c-1.6-1.5-2.4-3.6-2.4-6.3c0-5.8,4.2-9.7,11.1-9.7
		c4.4,0,7.4,1.1,10.3,3.8l-3.2,3.2c-2-2-4.4-2.6-7.2-2.6c-3.9,0-6,2.2-6,5.2c0,1.2,0.4,2.3,1.3,3.1c0.8,0.7,2.2,1.3,3.7,1.5l3.8,0.6
		c3.1,0.5,4.8,1.2,6.2,2.5c1.8,1.6,2.7,4,2.7,6.8C51.1,156.6,46.1,160.2,39.2,160.2z M75.6,161.4l-3.3-3.3c-1.9,1.3-4.3,2.1-6.9,2.1
		c-3.5,0-6.4-1.3-8.7-3.5c-3.3-3.3-3.2-6.9-3.2-13.3c0-6.4,0-10,3.2-13.3c2.3-2.3,5.2-3.5,8.7-3.5s6.5,1.3,8.7,3.5
		c3.3,3.3,3.2,6.9,3.2,13.3c0,5.6,0,9.1-2.1,12l3.3,3.2L75.6,161.4z M104.8,148.8c0,6.8-5.2,11.4-11.9,11.4
		c-6.7,0-11.9-4.6-11.9-11.4v-22h5v21.7c0,4.4,2.7,7.2,6.8,7.2c4.1,0,6.9-2.7,6.9-7.2v-21.7h5V148.8z M128.9,159.9l-2.3-6.7h-13.1
		l-2.3,6.7h-5.4l12.1-33.1h4l12.1,33.1H128.9z M154,159.9l-7-14h-6.3v14h-5v-33.1h12.8c6.3,0,10.3,4,10.3,9.7c0,4.7-2.9,7.8-6.6,8.8
		l7.6,14.7H154z M138.4,76.9v34.9h-13.9V76.9l-21.6-50.2h15.2L131.5,61l13.2-34.3h15.2L138.4,76.9z"/>
</g>
</svg>
